<svg id="Capa_1" data-name="Capa 1" xmlns="http://www.w3.org/2000/svg" viewBox="0 0 651 580"><defs><style>.cls-1{fill:none;stroke:#fff;stroke-miterlimit:10;stroke-width:8px;opacity:0.1;}.cls-2{fill:#fff;}.cls-3{fill:#e6f5ff;}.cls-4{fill:#ebfeff;}.cls-5{fill:#e5ffff;}.cls-6{fill:#eaffff;}</style></defs><rect class="cls-1" x="4" y="4" width="643" height="572"/><path class="cls-2" d="M196.85,147.71h8.36a15,15,0,0,1,8.44,2.14c2.15,1.43,3.22,3.7,3.22,6.84a8.13,8.13,0,0,1-4.08,7.25q5.91,2.49,5.9,8.3c0,3.55-1.14,6.12-3.43,7.68a15.7,15.7,0,0,1-9,2.35h-9.36Zm4.56,3.75v11.23h3.75q3.6,0,5.35-1.54a5.19,5.19,0,0,0,1.75-4.12q0-5.58-6.91-5.57Zm0,14.83v12.24h4.42q8.21,0,8.21-5.9a6,6,0,0,0-1.85-4.61,7.8,7.8,0,0,0-5.5-1.73Z" transform="translate(-3.18 -3.33)"/><path class="cls-2" d="M224.19,151.29a3,3,0,1,1,2.13.89A2.91,2.91,0,0,1,224.19,151.29Zm2,5.64h.29a9.22,9.22,0,0,1,1.36.07c.31.05.48.11.53.19a.63.63,0,0,1,.07.32V181.7a.57.57,0,0,1-.07.31c0,.08-.22.14-.53.19a9.22,9.22,0,0,1-1.36.07h-.29a9.28,9.28,0,0,1-1.37-.07,1.31,1.31,0,0,1-.57-.17.37.37,0,0,1-.13-.33V157.51a.4.4,0,0,1,.13-.34,1.46,1.46,0,0,1,.57-.17A9.28,9.28,0,0,1,226.23,156.93Z" transform="translate(-3.18 -3.33)"/><path class="cls-2" d="M255.65,171.14H238.76q.24,4.13,2.4,6a8.33,8.33,0,0,0,5.66,1.73,15.23,15.23,0,0,0,6.34-1.54.46.46,0,0,1,.57-.07,2.18,2.18,0,0,1,.63,1l.24.58c.41,1,.44,1.55.09,1.78a16.78,16.78,0,0,1-8.69,2.2c-3.8,0-6.72-1.11-8.73-3.33s-3-5.31-3-9.24q0-6.15,3.12-9.94a10.34,10.34,0,0,1,8.4-3.79,9.09,9.09,0,0,1,8.79,5.28,17.1,17.1,0,0,1,1.58,7.68C256.13,170.56,256,171.14,255.65,171.14Zm-16.75-3.55h12.82a8.88,8.88,0,0,0-1.56-5.09,5,5,0,0,0-4.35-2.11,6.31,6.31,0,0,0-4.58,1.8A9,9,0,0,0,238.9,167.59Z" transform="translate(-3.18 -3.33)"/><path class="cls-2" d="M263.81,156.93h.24a6.54,6.54,0,0,1,1.61.12.46.46,0,0,1,.36.46l.05,2.16h.05a8.81,8.81,0,0,1,3.4-2.33,11.59,11.59,0,0,1,4.42-.89,8.75,8.75,0,0,1,6.58,2.54q2.44,2.5,2.44,8.16V181.7a.57.57,0,0,1-.07.31c-.05.08-.22.14-.53.19a9.22,9.22,0,0,1-1.36.07h-.29a9.28,9.28,0,0,1-1.37-.07,1.42,1.42,0,0,1-.58-.17.39.39,0,0,1-.12-.33V169.17a31.79,31.79,0,0,0-.24-4.63,5,5,0,0,0-1-2.43q-1.31-1.58-4.56-1.58a7.12,7.12,0,0,0-5.09,1.73,5.21,5.21,0,0,0-1.3,3.41q-.13,2-.14,6.57v9.46a.57.57,0,0,1-.07.31c-.05.08-.23.14-.53.19a9.28,9.28,0,0,1-1.37.07H264a9.22,9.22,0,0,1-1.36-.07,1.37,1.37,0,0,1-.58-.17.39.39,0,0,1-.12-.33V165.33c0-1.25,0-2.81-.05-4.68s-.05-2.92-.05-3.14a.51.51,0,0,1,.1-.34,1.27,1.27,0,0,1,.55-.17A9,9,0,0,1,263.81,156.93Z" transform="translate(-3.18 -3.33)"/><path class="cls-2" d="M291,157.46l6.91,19.92h.05a153.46,153.46,0,0,0,6.14-20,.59.59,0,0,1,.39-.38,7,7,0,0,1,1.63-.1,7.43,7.43,0,0,1,1.87.14c.26.1.34.36.24.77a139.08,139.08,0,0,1-8.11,23.86.89.89,0,0,1-.62.48,12.32,12.32,0,0,1-1.92.09,11.84,11.84,0,0,1-1.85-.09.74.74,0,0,1-.6-.48l-8.79-24.1a.38.38,0,0,1,.29-.55,8.62,8.62,0,0,1,1.83-.12C290,156.93,290.85,157.11,291,157.46Z" transform="translate(-3.18 -3.33)"/><path class="cls-2" d="M332.16,171.14H315.27q.24,4.13,2.4,6a8.33,8.33,0,0,0,5.66,1.73,15.2,15.2,0,0,0,6.34-1.54.46.46,0,0,1,.57-.07,2.1,2.1,0,0,1,.63,1l.24.58c.41,1,.45,1.55.09,1.78a16.77,16.77,0,0,1-8.68,2.2q-5.72,0-8.74-3.33c-2-2.22-3-5.31-3-9.24q0-6.15,3.12-9.94a10.34,10.34,0,0,1,8.4-3.79,9.09,9.09,0,0,1,8.78,5.28,17,17,0,0,1,1.58,7.68C332.64,170.56,332.48,171.14,332.16,171.14Zm-16.75-3.55h12.82a8.73,8.73,0,0,0-1.56-5.09,5,5,0,0,0-4.35-2.11,6.31,6.31,0,0,0-4.58,1.8A9,9,0,0,0,315.41,167.59Z" transform="translate(-3.18 -3.33)"/><path class="cls-2" d="M340.32,156.93h.24a6.48,6.48,0,0,1,1.61.12.46.46,0,0,1,.36.46l.05,2.16h.05a8.85,8.85,0,0,1,3.41-2.33,11.54,11.54,0,0,1,4.41-.89A8.73,8.73,0,0,1,357,159q2.45,2.5,2.45,8.16V181.7a.57.57,0,0,1-.08.31c0,.08-.22.14-.52.19a9.37,9.37,0,0,1-1.37.07h-.29a9.37,9.37,0,0,1-1.37-.07,1.31,1.31,0,0,1-.57-.17.39.39,0,0,1-.12-.33V169.17a31.79,31.79,0,0,0-.24-4.63,5,5,0,0,0-1.06-2.43q-1.29-1.58-4.56-1.58a7.12,7.12,0,0,0-5.09,1.73,5.21,5.21,0,0,0-1.29,3.41q-.15,2-.15,6.57v9.46a.57.57,0,0,1-.07.31c-.05.08-.22.14-.53.19a9.28,9.28,0,0,1-1.37.07h-.28a9.28,9.28,0,0,1-1.37-.07,1.37,1.37,0,0,1-.58-.17.39.39,0,0,1-.12-.33V165.33c0-1.25,0-2.81-.05-4.68s0-2.92,0-3.14a.51.51,0,0,1,.09-.34A1.33,1.33,0,0,1,339,157,9,9,0,0,1,340.32,156.93Z" transform="translate(-3.18 -3.33)"/><path class="cls-2" d="M366.41,151.29a3,3,0,1,1,2.14.89A2.91,2.91,0,0,1,366.41,151.29Zm2,5.64h.29a9.37,9.37,0,0,1,1.37.07c.3.05.48.11.53.19a.76.76,0,0,1,.07.32V181.7a.68.68,0,0,1-.07.31c-.05.08-.23.14-.53.19a9.37,9.37,0,0,1-1.37.07h-.29a9.37,9.37,0,0,1-1.37-.07,1.36,1.36,0,0,1-.57-.17.39.39,0,0,1-.12-.33V157.51a.43.43,0,0,1,.12-.34,1.53,1.53,0,0,1,.57-.17A9.37,9.37,0,0,1,368.45,156.93Z" transform="translate(-3.18 -3.33)"/><path class="cls-2" d="M395.62,145.79h.29c1.31,0,2,.21,2,.63v29.85a4.4,4.4,0,0,0,.32,2.16c.2.29.66.44,1.37.44.28,0,.43.43.43,1.29v.34c0,1-.15,1.49-.43,1.58a6.56,6.56,0,0,1-2.12.29q-2.44,0-3.31-2.78h-.05a7.15,7.15,0,0,1-2.93,2.25,10.32,10.32,0,0,1-4.41.91,9.2,9.2,0,0,1-7.51-3.36q-2.76-3.36-2.76-9.26a15.54,15.54,0,0,1,3-9.74,10.25,10.25,0,0,1,8.64-3.94,9.54,9.54,0,0,1,5.43,1.58V146.42C393.56,146,394.24,145.79,395.62,145.79Zm-2.06,24.77v-8.4a7.81,7.81,0,0,0-5.19-1.77A6.47,6.47,0,0,0,383,163a11.18,11.18,0,0,0-2,7,10.35,10.35,0,0,0,1.85,6.6,5.81,5.81,0,0,0,4.77,2.32,6.16,6.16,0,0,0,4.56-1.63,4.28,4.28,0,0,0,1.11-2.23A25,25,0,0,0,393.56,170.56Z" transform="translate(-3.18 -3.33)"/><path class="cls-2" d="M416.26,156.45a10.4,10.4,0,0,1,7.2,2.4q3.8,3.36,3.79,10.18,0,6.66-3.22,10.2a11.22,11.22,0,0,1-8.73,3.52,10.36,10.36,0,0,1-7.2-2.4q-3.8-3.36-3.79-10.17t3.21-10.2A11.26,11.26,0,0,1,416.26,156.45Zm-.19,3.84a6.57,6.57,0,0,0-5.21,2.35q-2,2.36-2,7.2a16,16,0,0,0,.53,4.32,6.84,6.84,0,0,0,2.11,3.34,5.83,5.83,0,0,0,4,1.41,6.59,6.59,0,0,0,5.21-2.35c1.36-1.56,2-4,2-7.2a16.38,16.38,0,0,0-.53-4.32,6.84,6.84,0,0,0-2.11-3.33A5.8,5.8,0,0,0,416.07,160.29Z" transform="translate(-3.18 -3.33)"/><path class="cls-2" d="M463.06,156.93h.09a8.4,8.4,0,0,1,1.3.07c.29.05.46.11.5.17a.58.58,0,0,1,.08.34c0,.22,0,1.2,0,2.92s-.05,3.19-.05,4.37v6.72q0,4,.34,10.18c0,.38-.58.57-1.73.57h-.19q-1.78,0-1.83-.57l-.29-2.21a8.81,8.81,0,0,1-3.16,2.35,9.93,9.93,0,0,1-4.23.91,8.88,8.88,0,0,1-7.63-3.6,15,15,0,0,1-2.64-9.12q0-6.09,3.12-9.84a9.88,9.88,0,0,1,7.92-3.74,7.81,7.81,0,0,1,6.48,3.07l.24-2c0-.29.14-.46.31-.51A7.73,7.73,0,0,1,463.06,156.93Zm-2.45,13.49V163.6a7.27,7.27,0,0,0-2.38-2.33,5.88,5.88,0,0,0-3.14-.93,6,6,0,0,0-5.14,2.54,11.49,11.49,0,0,0-1.87,6.91,12.53,12.53,0,0,0,1.56,6.51,5.36,5.36,0,0,0,5,2.61,6.19,6.19,0,0,0,4.8-1.87,4.3,4.3,0,0,0,1-2.11A28.57,28.57,0,0,0,460.61,170.42Z" transform="translate(-3.18 -3.33)"/><path class="cls-2" d="M105,453.23l-.15.27q-.48.84-.84.6a6.65,6.65,0,0,0-3.75-1.05,3.7,3.7,0,0,0-2.73.93,3.06,3.06,0,0,0-.93,2.25,2.76,2.76,0,0,0,1,2.1,9.56,9.56,0,0,0,2.4,1.56c.94.44,1.88.92,2.82,1.43a7.17,7.17,0,0,1,2.4,2.13,5.33,5.33,0,0,1,1,3.22,5.88,5.88,0,0,1-1.78,4.5,7.2,7.2,0,0,1-5.12,1.68,9.7,9.7,0,0,1-6.06-1.71c-.24-.19-.18-.61.18-1.23l.21-.36q.51-.81.84-.57a7.88,7.88,0,0,0,2.24,1.08,7.61,7.61,0,0,0,2.26.39,5.28,5.28,0,0,0,3.17-.9,2.93,2.93,0,0,0,1.24-2.52,3.31,3.31,0,0,0-1-2.41A8.27,8.27,0,0,0,100,463c-.93-.44-1.87-.89-2.81-1.36a7.08,7.08,0,0,1-2.4-1.95,4.71,4.71,0,0,1-1-3,5.56,5.56,0,0,1,1.8-4.35,6.39,6.39,0,0,1,4.44-1.62,10.4,10.4,0,0,1,2.82.41,6.23,6.23,0,0,1,2.31,1.12Q105.4,452.39,105,453.23Z" transform="translate(-3.18 -3.33)"/><path class="cls-2" d="M110.77,456.71h.12a4.19,4.19,0,0,1,1,.08c.16,0,.24.14.24.28l0,1.35h0a5.21,5.21,0,0,1,1.91-1.44,5.84,5.84,0,0,1,2.44-.57,5.71,5.71,0,0,1,4.68,2.1,8.92,8.92,0,0,1,1.71,5.79,9.65,9.65,0,0,1-1.89,6.06,6.44,6.44,0,0,1-5.43,2.46,5.71,5.71,0,0,1-3.27-.93v7.23q0,.39-1.29.39h-.18q-1.23,0-1.23-.39V462c0-.78,0-1.75,0-2.92s0-1.83,0-2a.29.29,0,0,1,.06-.21.81.81,0,0,1,.35-.1A5.46,5.46,0,0,1,110.77,456.71Zm1.53,7.89v4.65a4.69,4.69,0,0,0,3.12,1.14,4.07,4.07,0,0,0,3.38-1.63,6.92,6.92,0,0,0,1.27-4.37A6.61,6.61,0,0,0,119,460.3a3.49,3.49,0,0,0-2.91-1.46,4.74,4.74,0,0,0-1.81.38,3.29,3.29,0,0,0-1.37.94,2.56,2.56,0,0,0-.48,1.29C112.33,462,112.3,463,112.3,464.6Z" transform="translate(-3.18 -3.33)"/><path class="cls-2" d="M139,465.59H128.41a5,5,0,0,0,1.5,3.72,5.2,5.2,0,0,0,3.54,1.08,9.55,9.55,0,0,0,4-1,.29.29,0,0,1,.36,0,1.3,1.3,0,0,1,.39.61l.15.36q.39.9.06,1.11a10.49,10.49,0,0,1-5.43,1.38,7,7,0,0,1-5.46-2.08,8.3,8.3,0,0,1-1.89-5.78,9.46,9.46,0,0,1,2-6.21,6.45,6.45,0,0,1,5.25-2.37,5.68,5.68,0,0,1,5.49,3.3,10.64,10.64,0,0,1,1,4.8Q139.27,465.59,139,465.59Zm-10.47-2.22h8a5.47,5.47,0,0,0-1-3.18,3.14,3.14,0,0,0-2.72-1.32A3.94,3.94,0,0,0,130,460,5.58,5.58,0,0,0,128.5,463.37Z" transform="translate(-3.18 -3.33)"/><path class="cls-2" d="M155.29,465.59H144.73a5,5,0,0,0,1.5,3.72,5.2,5.2,0,0,0,3.54,1.08,9.55,9.55,0,0,0,4-1,.29.29,0,0,1,.36,0,1.3,1.3,0,0,1,.39.61l.15.36q.39.9.06,1.11a10.49,10.49,0,0,1-5.43,1.38,7,7,0,0,1-5.46-2.08,8.3,8.3,0,0,1-1.89-5.78,9.46,9.46,0,0,1,2-6.21,6.45,6.45,0,0,1,5.25-2.37,5.68,5.68,0,0,1,5.49,3.3,10.64,10.64,0,0,1,1,4.8Q155.59,465.59,155.29,465.59Zm-10.47-2.22h8a5.47,5.47,0,0,0-1-3.18,3.14,3.14,0,0,0-2.72-1.32,3.94,3.94,0,0,0-2.86,1.13A5.58,5.58,0,0,0,144.82,463.37Z" transform="translate(-3.18 -3.33)"/><path class="cls-2" d="M170.2,449.75h.18q1.23,0,1.23.39V468.8a2.79,2.79,0,0,0,.2,1.35c.13.18.41.27.85.27q.27,0,.27.81v.21q0,.9-.27,1a4,4,0,0,1-1.32.18,2.1,2.1,0,0,1-2.07-1.74h0a4.51,4.51,0,0,1-1.83,1.41,6.49,6.49,0,0,1-2.76.57,5.74,5.74,0,0,1-4.69-2.1,8.85,8.85,0,0,1-1.73-5.79,9.7,9.7,0,0,1,1.89-6.09,6.43,6.43,0,0,1,5.4-2.46,5.93,5.93,0,0,1,3.39,1v-7.26Q168.91,449.75,170.2,449.75Zm-1.29,15.48V460a4.86,4.86,0,0,0-3.24-1.11,4,4,0,0,0-3.36,1.64,7,7,0,0,0-1.26,4.36,6.51,6.51,0,0,0,1.16,4.13,3.62,3.62,0,0,0,3,1.45,3.85,3.85,0,0,0,2.85-1,2.65,2.65,0,0,0,.69-1.39A15.63,15.63,0,0,0,168.91,465.23Z" transform="translate(-3.18 -3.33)"/><path class="cls-2" d="M184.05,453.19a1.84,1.84,0,0,1-.56-1.34,1.91,1.91,0,0,1,1.89-1.89,1.84,1.84,0,0,1,1.34.56,1.8,1.8,0,0,1,.55,1.33,1.88,1.88,0,0,1-1.89,1.89A1.8,1.8,0,0,1,184.05,453.19Zm1.27,3.52h.18a5.88,5.88,0,0,1,.86.05q.28,0,.33.12a.36.36,0,0,1,0,.19v15.12a.4.4,0,0,1,0,.2q0,.08-.33.12a6.2,6.2,0,0,1-.86,0h-.18a6,6,0,0,1-.85,0,.75.75,0,0,1-.36-.11.26.26,0,0,1-.08-.21V457.07a.26.26,0,0,1,.08-.21.93.93,0,0,1,.36-.1A5.73,5.73,0,0,1,185.32,456.71Z" transform="translate(-3.18 -3.33)"/><path class="cls-2" d="M192.49,456.71h.15a4,4,0,0,1,1,.08.28.28,0,0,1,.22.28l0,1.35h0a5.54,5.54,0,0,1,2.13-1.45,7.2,7.2,0,0,1,2.76-.56,5.48,5.48,0,0,1,4.11,1.59q1.53,1.56,1.53,5.1v9.09a.4.4,0,0,1,0,.2q0,.08-.33.12a6.2,6.2,0,0,1-.86,0h-.18a6,6,0,0,1-.85,0,.75.75,0,0,1-.36-.11.26.26,0,0,1-.08-.21v-7.83a19.77,19.77,0,0,0-.15-2.89A3.1,3.1,0,0,0,201,460a3.51,3.51,0,0,0-2.85-1,4.44,4.44,0,0,0-3.18,1.08,3.27,3.27,0,0,0-.81,2.13q-.09,1.26-.09,4.11v5.91a.4.4,0,0,1,0,.2q0,.08-.33.12a6.2,6.2,0,0,1-.86,0h-.18a6,6,0,0,1-.85,0,.75.75,0,0,1-.36-.11.26.26,0,0,1-.08-.21V462c0-.78,0-1.75,0-2.92s0-1.83,0-2a.29.29,0,0,1,.06-.21.81.81,0,0,1,.35-.1A5.46,5.46,0,0,1,192.49,456.71Z" transform="translate(-3.18 -3.33)"/><path class="cls-2" d="M218.23,452.27h.18a5.88,5.88,0,0,1,.86.05q.28,0,.33.12a.36.36,0,0,1,0,.19v4.08h3.78c.18,0,.27.32.27.93v.24c0,.65-.09,1-.27,1h-3.78v8.85a3.67,3.67,0,0,0,.48,2.31,2,2,0,0,0,1.53.54,7.53,7.53,0,0,0,2-.39.29.29,0,0,1,.32.06,1.62,1.62,0,0,1,.22.54l.09.39q.18.78-.09,1a5.78,5.78,0,0,1-3.15.75,4.21,4.21,0,0,1-3-1q-1.14-1-1.14-4v-9.06h-1.89c-.18,0-.27-.31-.27-1v-.24c0-.61.09-.93.27-.93h1.89v-4.08a.26.26,0,0,1,.08-.21.93.93,0,0,1,.36-.1A5.73,5.73,0,0,1,218.23,452.27Z" transform="translate(-3.18 -3.33)"/><path class="cls-2" d="M228.55,456.71h.15a4,4,0,0,1,1,.08.28.28,0,0,1,.22.28l.06,3.09q1.65-3.63,4.38-3.63a3.21,3.21,0,0,1,.63.06.28.28,0,0,1,.26.18,3,3,0,0,1,0,.66v.45a4.14,4.14,0,0,1-.06.9.26.26,0,0,1-.27.21,3.76,3.76,0,0,0-2.37.72,7.23,7.23,0,0,0-1.71,2,5.59,5.59,0,0,0-.72,2.58q-.09,1.26-.09,4.44v3.45a.4.4,0,0,1,0,.2q0,.08-.33.12a6.2,6.2,0,0,1-.86,0h-.18a6,6,0,0,1-.85,0,.75.75,0,0,1-.36-.11.26.26,0,0,1-.08-.21V462c0-.78,0-1.75,0-2.92s0-1.83,0-2a.29.29,0,0,1,.06-.21.81.81,0,0,1,.35-.1A5.46,5.46,0,0,1,228.55,456.71Z" transform="translate(-3.18 -3.33)"/><path class="cls-2" d="M248.89,456.71H249a5.21,5.21,0,0,1,.81.05c.18,0,.29.06.32.1a.37.37,0,0,1,0,.21q0,.21,0,1.83t0,2.73v4.2q0,2.52.21,6.36,0,.36-1.08.36h-.12q-1.11,0-1.14-.36l-.18-1.38a5.58,5.58,0,0,1-2,1.47,6.2,6.2,0,0,1-2.64.57,5.55,5.55,0,0,1-4.77-2.25,9.39,9.39,0,0,1-1.65-5.7,9.29,9.29,0,0,1,1.95-6.15,6.17,6.17,0,0,1,5-2.34,4.87,4.87,0,0,1,4,1.92l.15-1.26c0-.18.09-.28.2-.31A4.6,4.6,0,0,1,248.89,456.71Zm-1.53,8.43v-4.26a4.47,4.47,0,0,0-1.48-1.45,3.7,3.7,0,0,0-2-.59,3.77,3.77,0,0,0-3.21,1.59,7.14,7.14,0,0,0-1.17,4.32,7.84,7.84,0,0,0,1,4.07,3.33,3.33,0,0,0,3.1,1.63,3.88,3.88,0,0,0,3-1.17,2.65,2.65,0,0,0,.6-1.32A17.87,17.87,0,0,0,247.36,465.14Z" transform="translate(-3.18 -3.33)"/><path class="cls-2" d="M265.69,449.75h.18q1.23,0,1.23.39V468.8a2.84,2.84,0,0,0,.19,1.35c.13.18.42.27.86.27q.27,0,.27.81v.21q0,.9-.27,1a4,4,0,0,1-1.32.18,2.1,2.1,0,0,1-2.07-1.74h0a4.51,4.51,0,0,1-1.83,1.41,6.49,6.49,0,0,1-2.76.57,5.73,5.73,0,0,1-4.69-2.1,8.79,8.79,0,0,1-1.73-5.79,9.7,9.7,0,0,1,1.89-6.09,6.43,6.43,0,0,1,5.4-2.46,5.93,5.93,0,0,1,3.39,1v-7.26Q264.4,449.75,265.69,449.75Zm-1.29,15.48V460a4.86,4.86,0,0,0-3.24-1.11,4,4,0,0,0-3.36,1.64,7,7,0,0,0-1.26,4.36A6.45,6.45,0,0,0,257.7,469a3.61,3.61,0,0,0,3,1.45,3.85,3.85,0,0,0,2.85-1,2.65,2.65,0,0,0,.69-1.39A15.63,15.63,0,0,0,264.4,465.23Z" transform="translate(-3.18 -3.33)"/><path class="cls-2" d="M272,453.19a1.8,1.8,0,0,1-.56-1.34,1.78,1.78,0,0,1,.56-1.33,1.8,1.8,0,0,1,1.33-.56,1.89,1.89,0,1,1,0,3.78A1.79,1.79,0,0,1,272,453.19Zm1.27,3.52h.18a6,6,0,0,1,.86.05c.18,0,.29.07.32.12a.29.29,0,0,1,.05.19v15.12a.31.31,0,0,1-.05.2c0,.05-.14.09-.32.12a6.3,6.3,0,0,1-.86,0h-.18a6,6,0,0,1-.85,0c-.2,0-.32-.06-.36-.11a.23.23,0,0,1-.08-.21V457.07a.23.23,0,0,1,.08-.21.82.82,0,0,1,.36-.1A5.63,5.63,0,0,1,273.31,456.71Z" transform="translate(-3.18 -3.33)"/><path class="cls-2" d="M280.48,456.71h.15a3.93,3.93,0,0,1,1,.08.28.28,0,0,1,.23.28l0,1.35h0a5.54,5.54,0,0,1,2.13-1.45,7.2,7.2,0,0,1,2.76-.56,5.48,5.48,0,0,1,4.11,1.59q1.53,1.56,1.53,5.1v9.09a.39.39,0,0,1-.05.2q0,.08-.33.12a6,6,0,0,1-.85,0H291a6.2,6.2,0,0,1-.86,0,.75.75,0,0,1-.36-.11.25.25,0,0,1-.07-.21v-7.83a19.77,19.77,0,0,0-.15-2.89,3.1,3.1,0,0,0-.66-1.52,3.51,3.51,0,0,0-2.85-1,4.44,4.44,0,0,0-3.18,1.08,3.27,3.27,0,0,0-.81,2.13q-.09,1.26-.09,4.11v5.91a.39.39,0,0,1-.05.2q0,.08-.33.12a6,6,0,0,1-.85,0h-.18a6.2,6.2,0,0,1-.86,0,.75.75,0,0,1-.36-.11.25.25,0,0,1-.07-.21V462c0-.78,0-1.75,0-2.92s0-1.83,0-2a.29.29,0,0,1,.06-.21.75.75,0,0,1,.34-.1A5.61,5.61,0,0,1,280.48,456.71Z" transform="translate(-3.18 -3.33)"/><path class="cls-2" d="M307.87,456.71H308q1.17,0,1.2.39.18,2.19.18,7.44v5a20.67,20.67,0,0,1-.57,5.64,5.7,5.7,0,0,1-2.46,3.24,7.57,7.57,0,0,1-4.17,1.17,13.41,13.41,0,0,1-2.51-.25,6.21,6.21,0,0,1-2-.68q-.3-.15,0-1.05l.12-.36q.27-.84.51-.84a4.31,4.31,0,0,1,.72.24,8.67,8.67,0,0,0,2.85.51q3.93,0,4.62-3.42a16.63,16.63,0,0,0,.18-2.88,5.69,5.69,0,0,1-4.38,1.71,5.62,5.62,0,0,1-4.76-2.14,9,9,0,0,1-1.63-5.6,9.33,9.33,0,0,1,1.95-6.1,6.1,6.1,0,0,1,4.89-2.3,5.17,5.17,0,0,1,2.32.51,3.69,3.69,0,0,1,1.58,1.41h0V457.1Q306.64,456.71,307.87,456.71Zm-1.23,11.64V464a8.77,8.77,0,0,0-.45-3.48,3.3,3.3,0,0,0-3.24-1.62,3.67,3.67,0,0,0-3.11,1.58,6.9,6.9,0,0,0-1.15,4.18q0,5.43,4.11,5.43a5,5,0,0,0,2.16-.49A4.69,4.69,0,0,0,306.64,468.35Z" transform="translate(-3.18 -3.33)"/><path class="cls-2" d="M313.12,477.41l-.33-.36a.52.52,0,0,1-.06-.81,4.58,4.58,0,0,0,1.74-3,1.66,1.66,0,0,0-.66-1.17,2,2,0,0,1-.66-1.53,1.58,1.58,0,0,1,.55-1.26,2,2,0,0,1,1.34-.48,2,2,0,0,1,1.6.68,2.44,2.44,0,0,1,.59,1.66,7.45,7.45,0,0,1-.89,3.45,8.79,8.79,0,0,1-2.35,2.88A.56.56,0,0,1,313.12,477.41Z" transform="translate(-3.18 -3.33)"/><path class="cls-2" d="M338,459.14l-.21.3a2.55,2.55,0,0,1-.59.66.2.2,0,0,1-.31-.06,6.22,6.22,0,0,0-3.48-1.32,4.23,4.23,0,0,0-2.07.51,1.84,1.84,0,0,0-.39,2.9,2.9,2.9,0,0,0,1.06.7c.35.12.86.26,1.52.42s1.36.4,1.86.59a8.81,8.81,0,0,1,1.56.79A3.37,3.37,0,0,1,338.2,466a4.19,4.19,0,0,1,.42,1.93,4.32,4.32,0,0,1-1.71,3.63,6.81,6.81,0,0,1-4.29,1.32,8.18,8.18,0,0,1-4.92-1.5q-.21-.21-.18-.36a4.6,4.6,0,0,1,.3-.72l.15-.33a1.9,1.9,0,0,1,.45-.72q.18-.12.45.09a7.83,7.83,0,0,0,3.9,1.2,4.33,4.33,0,0,0,2.26-.61,2,2,0,0,0,1-1.82,1.75,1.75,0,0,0-1-1.62,9.32,9.32,0,0,0-2.49-.87,7.77,7.77,0,0,1-3.57-1.53,3.78,3.78,0,0,1-1.2-2.91,4.2,4.2,0,0,1,1.6-3.43,6.07,6.07,0,0,1,3.95-1.31,6.88,6.88,0,0,1,4.74,1.65Q338.53,458.42,338,459.14Z" transform="translate(-3.18 -3.33)"/><path class="cls-2" d="M344.14,452.27h.18a5.73,5.73,0,0,1,.85.05q.29,0,.33.12a.36.36,0,0,1,.05.19v4.08h3.78c.18,0,.27.32.27.93v.24c0,.65-.09,1-.27,1h-3.78v8.85A3.67,3.67,0,0,0,346,470a2,2,0,0,0,1.53.54,7.53,7.53,0,0,0,2-.39.28.28,0,0,1,.31.06,1.58,1.58,0,0,1,.23.54l.09.39q.18.78-.09,1a5.78,5.78,0,0,1-3.15.75,4.21,4.21,0,0,1-3-1q-1.14-1-1.14-4v-9.06H341c-.18,0-.27-.31-.27-1v-.24c0-.61.09-.93.27-.93h1.89v-4.08a.25.25,0,0,1,.07-.21.93.93,0,0,1,.36-.1A5.88,5.88,0,0,1,344.14,452.27Z" transform="translate(-3.18 -3.33)"/><path class="cls-2" d="M364.42,456.71h.06a5.21,5.21,0,0,1,.81.05c.18,0,.28.06.31.1a.36.36,0,0,1,0,.21q0,.21,0,1.83t0,2.73v4.2q0,2.52.21,6.36,0,.36-1.08.36h-.12q-1.11,0-1.14-.36l-.18-1.38a5.58,5.58,0,0,1-2,1.47,6.2,6.2,0,0,1-2.64.57,5.55,5.55,0,0,1-4.77-2.25,9.39,9.39,0,0,1-1.65-5.7,9.29,9.29,0,0,1,1.95-6.15,6.17,6.17,0,0,1,4.95-2.34,4.87,4.87,0,0,1,4.05,1.92l.15-1.26c0-.18.08-.28.19-.31A4.73,4.73,0,0,1,364.42,456.71Zm-1.53,8.43v-4.26a4.5,4.5,0,0,0-1.49-1.45,3.67,3.67,0,0,0-2-.59,3.77,3.77,0,0,0-3.21,1.59,7.14,7.14,0,0,0-1.17,4.32,7.84,7.84,0,0,0,1,4.07,3.35,3.35,0,0,0,3.11,1.63,3.88,3.88,0,0,0,3-1.17,2.65,2.65,0,0,0,.6-1.32A17.87,17.87,0,0,0,362.89,465.14Z" transform="translate(-3.18 -3.33)"/><path class="cls-2" d="M371.41,449.75h.18a5.73,5.73,0,0,1,.85.05q.29,0,.33.12a.36.36,0,0,1,.05.19v8.07a4.69,4.69,0,0,1,1.9-1.27,6.91,6.91,0,0,1,2.57-.5,5.32,5.32,0,0,1,5.16,3.3,10.63,10.63,0,0,1,.9,4.5,9.46,9.46,0,0,1-2,6.35,7.1,7.1,0,0,1-5.71,2.29,13.1,13.1,0,0,1-5.46-1.05q-.09,0-.09-.3V450.11a.27.27,0,0,1,.07-.21.93.93,0,0,1,.36-.1A5.88,5.88,0,0,1,371.41,449.75Zm1.41,16.53V470a7,7,0,0,0,2.61.51,4.54,4.54,0,0,0,3.79-1.65,7,7,0,0,0,1.31-4.44q0-5.46-3.84-5.46a4,4,0,0,0-3,1.11,3.48,3.48,0,0,0-.81,2.16Q372.82,463.49,372.82,466.28Z" transform="translate(-3.18 -3.33)"/><path class="cls-2" d="M387,453.19a1.83,1.83,0,0,1-.55-1.34,1.8,1.8,0,0,1,.55-1.33,1.84,1.84,0,0,1,1.34-.56,1.91,1.91,0,0,1,1.89,1.89,1.84,1.84,0,0,1-.56,1.34,1.8,1.8,0,0,1-1.33.55A1.83,1.83,0,0,1,387,453.19Zm1.28,3.52h.18a5.73,5.73,0,0,1,.85.05q.28,0,.33.12a.36.36,0,0,1,0,.19v15.12a.39.39,0,0,1,0,.2q0,.08-.33.12a6,6,0,0,1-.85,0h-.18a6.2,6.2,0,0,1-.86,0,.75.75,0,0,1-.36-.11.25.25,0,0,1-.07-.21V457.07a.25.25,0,0,1,.07-.21.93.93,0,0,1,.36-.1A5.88,5.88,0,0,1,388.24,456.71Z" transform="translate(-3.18 -3.33)"/><path class="cls-2" d="M395.17,449.75h.18a3.65,3.65,0,0,1,.93.08.41.41,0,0,1,.3.31q.18,1,.18,8.88v10a2.32,2.32,0,0,0,.21,1.19c.14.21.45.31.93.31h.3q.18,0,.18.81v.09q0,.9-.18,1a4.09,4.09,0,0,1-1.41.24,2.49,2.49,0,0,1-2.22-1,6.33,6.33,0,0,1-.51-3.15V458.36q0-6.81-.18-8.22,0-.21.24-.3A4,4,0,0,1,395.17,449.75Z" transform="translate(-3.18 -3.33)"/><path class="cls-2" d="M401.84,453.19a1.83,1.83,0,0,1-.55-1.34,1.8,1.8,0,0,1,.55-1.33,1.84,1.84,0,0,1,1.34-.56,1.91,1.91,0,0,1,1.89,1.89,1.84,1.84,0,0,1-.56,1.34,1.8,1.8,0,0,1-1.33.55A1.83,1.83,0,0,1,401.84,453.19Zm1.28,3.52h.18a5.73,5.73,0,0,1,.85.05q.28,0,.33.12a.36.36,0,0,1,0,.19v15.12a.39.39,0,0,1,0,.2q0,.08-.33.12a6,6,0,0,1-.85,0h-.18a6.2,6.2,0,0,1-.86,0,.75.75,0,0,1-.36-.11.25.25,0,0,1-.07-.21V457.07a.25.25,0,0,1,.07-.21.93.93,0,0,1,.36-.1A5.88,5.88,0,0,1,403.12,456.71Z" transform="translate(-3.18 -3.33)"/><path class="cls-2" d="M411,452.27h.18a5.73,5.73,0,0,1,.85.05q.28,0,.33.12a.36.36,0,0,1,.05.19v4.08h3.78c.18,0,.27.32.27.93v.24c0,.65-.09,1-.27,1h-3.78v8.85a3.67,3.67,0,0,0,.48,2.31,2,2,0,0,0,1.53.54,7.53,7.53,0,0,0,2-.39.28.28,0,0,1,.31.06,1.58,1.58,0,0,1,.23.54l.09.39q.18.78-.09,1a5.78,5.78,0,0,1-3.15.75,4.21,4.21,0,0,1-3-1q-1.14-1-1.14-4v-9.06H407.8c-.18,0-.27-.31-.27-1v-.24c0-.61.09-.93.27-.93h1.89v-4.08a.25.25,0,0,1,.07-.21.93.93,0,0,1,.36-.1A5.88,5.88,0,0,1,411,452.27Z" transform="translate(-3.18 -3.33)"/><path class="cls-2" d="M421.3,457l2.82,7.47a46.53,46.53,0,0,1,1.65,5.13q.33-1.38,1.53-4.92L430,457q.12-.33,1.35-.33l.72,0a1.77,1.77,0,0,1,.45.07.39.39,0,0,1,.22.14.19.19,0,0,1,0,.19L427,472.91a14.11,14.11,0,0,1-2.55,4.8,5.83,5.83,0,0,1-4.47,1.83,5.06,5.06,0,0,1-2.4-.54q-.36-.18-.09-1l.12-.36a2.27,2.27,0,0,1,.3-.67.34.34,0,0,1,.36-.08,6.18,6.18,0,0,0,1.62.27,3.4,3.4,0,0,0,2.49-1,9.84,9.84,0,0,0,1.92-3.5l-6-15.6c-.08-.18,0-.29.18-.34a6.16,6.16,0,0,1,1.23-.08Q421.18,456.71,421.3,457Z" transform="translate(-3.18 -3.33)"/><path class="cls-2" d="M442.79,453.19a1.83,1.83,0,0,1-.55-1.34,1.8,1.8,0,0,1,.55-1.33,1.84,1.84,0,0,1,1.34-.56,1.91,1.91,0,0,1,1.89,1.89,1.84,1.84,0,0,1-.56,1.34,1.8,1.8,0,0,1-1.33.55A1.83,1.83,0,0,1,442.79,453.19Zm1.28,3.52h.18a5.73,5.73,0,0,1,.85.05q.28,0,.33.12a.36.36,0,0,1,.05.19v15.12a.39.39,0,0,1-.05.2q0,.08-.33.12a6,6,0,0,1-.85,0h-.18a6.2,6.2,0,0,1-.86,0,.75.75,0,0,1-.36-.11.25.25,0,0,1-.07-.21V457.07a.25.25,0,0,1,.07-.21.93.93,0,0,1,.36-.1A5.88,5.88,0,0,1,444.07,456.71Z" transform="translate(-3.18 -3.33)"/><path class="cls-2" d="M451.24,456.71h.15a3.93,3.93,0,0,1,1,.08.28.28,0,0,1,.23.28l0,1.35h0a5.54,5.54,0,0,1,2.13-1.45,7.2,7.2,0,0,1,2.76-.56,5.48,5.48,0,0,1,4.11,1.59q1.53,1.56,1.53,5.1v9.09a.39.39,0,0,1,0,.2q0,.08-.33.12a6,6,0,0,1-.85,0h-.18a6.2,6.2,0,0,1-.86,0,.75.75,0,0,1-.36-.11.25.25,0,0,1-.07-.21v-7.83a19.77,19.77,0,0,0-.15-2.89,3.1,3.1,0,0,0-.66-1.52,3.51,3.51,0,0,0-2.85-1,4.44,4.44,0,0,0-3.18,1.08,3.27,3.27,0,0,0-.81,2.13q-.09,1.26-.09,4.11v5.91a.39.39,0,0,1,0,.2q0,.08-.33.12a6,6,0,0,1-.85,0h-.18a6.2,6.2,0,0,1-.86,0,.75.75,0,0,1-.36-.11.25.25,0,0,1-.07-.21V462c0-.78,0-1.75,0-2.92s0-1.83,0-2a.29.29,0,0,1,.06-.21.75.75,0,0,1,.34-.1A5.61,5.61,0,0,1,451.24,456.71Z" transform="translate(-3.18 -3.33)"/><path class="cls-2" d="M476.26,456.71h.15a3.93,3.93,0,0,1,1,.08.28.28,0,0,1,.23.28l.06,3.09q1.65-3.63,4.38-3.63a3.21,3.21,0,0,1,.63.06.27.27,0,0,1,.25.18,2.83,2.83,0,0,1,.05.66v.45a4.14,4.14,0,0,1-.06.9.26.26,0,0,1-.27.21,3.76,3.76,0,0,0-2.37.72,7.23,7.23,0,0,0-1.71,2,5.59,5.59,0,0,0-.72,2.58q-.09,1.26-.09,4.44v3.45a.39.39,0,0,1-.05.2q0,.08-.33.12a6,6,0,0,1-.85,0h-.18a6.2,6.2,0,0,1-.86,0,.75.75,0,0,1-.36-.11.25.25,0,0,1-.07-.21V462c0-.78,0-1.75,0-2.92s0-1.83,0-2a.29.29,0,0,1,.06-.21.75.75,0,0,1,.34-.1A5.61,5.61,0,0,1,476.26,456.71Z" transform="translate(-3.18 -3.33)"/><path class="cls-2" d="M497.8,465.59H487.24a5,5,0,0,0,1.5,3.72,5.2,5.2,0,0,0,3.54,1.08,9.55,9.55,0,0,0,4-1,.29.29,0,0,1,.36,0,1.3,1.3,0,0,1,.39.61l.15.36q.39.9.06,1.11a10.49,10.49,0,0,1-5.43,1.38,7,7,0,0,1-5.46-2.08,8.3,8.3,0,0,1-1.89-5.78,9.46,9.46,0,0,1,1.95-6.21,6.45,6.45,0,0,1,5.25-2.37,5.68,5.68,0,0,1,5.49,3.3,10.64,10.64,0,0,1,1,4.8Q498.1,465.59,497.8,465.59Zm-10.47-2.22h8a5.48,5.48,0,0,0-1-3.18,3.13,3.13,0,0,0-2.71-1.32,4,4,0,0,0-2.87,1.13A5.58,5.58,0,0,0,487.33,463.37Z" transform="translate(-3.18 -3.33)"/><path class="cls-2" d="M503.59,452.27h.18a5.73,5.73,0,0,1,.85.05q.28,0,.33.12a.36.36,0,0,1,.05.19v4.08h3.78c.18,0,.27.32.27.93v.24c0,.65-.09,1-.27,1H505v8.85a3.67,3.67,0,0,0,.48,2.31,2,2,0,0,0,1.53.54,7.53,7.53,0,0,0,2-.39.28.28,0,0,1,.31.06,1.58,1.58,0,0,1,.23.54l.09.39q.18.78-.09,1a5.78,5.78,0,0,1-3.15.75,4.21,4.21,0,0,1-3-1q-1.14-1-1.14-4v-9.06h-1.89c-.18,0-.27-.31-.27-1v-.24c0-.61.09-.93.27-.93h1.89v-4.08a.25.25,0,0,1,.07-.21.93.93,0,0,1,.36-.1A5.88,5.88,0,0,1,503.59,452.27Z" transform="translate(-3.18 -3.33)"/><path class="cls-2" d="M513.7,456.71h.24a5.46,5.46,0,0,1,.82.05.72.72,0,0,1,.36.12.26.26,0,0,1,.08.19v7.86a22.71,22.71,0,0,0,.13,2.88,3,3,0,0,0,.62,1.53,3.26,3.26,0,0,0,2.67,1,4.57,4.57,0,0,0,3.27-1.08,2.83,2.83,0,0,0,.73-1.47,16.89,16.89,0,0,0,.23-3.33v-7.41q0-.36,1.2-.36h.27q1.23,0,1.23.36V467.3c0,.78,0,1.76,0,2.93s0,1.82,0,2a.29.29,0,0,1-.06.21c0,.05-.16.08-.35.11a5.74,5.74,0,0,1-.82,0h-.12q-1.23,0-1.23-.36L523,470.9h0a6.38,6.38,0,0,1-5,2,5.23,5.23,0,0,1-4-1.59q-1.47-1.56-1.47-5.1v-9.09a.29.29,0,0,1,.06-.19.59.59,0,0,1,.33-.12A5.21,5.21,0,0,1,513.7,456.71Z" transform="translate(-3.18 -3.33)"/><path class="cls-2" d="M531.34,456.71h.15a3.93,3.93,0,0,1,1,.08.28.28,0,0,1,.23.28l.06,3.09q1.65-3.63,4.38-3.63a3.21,3.21,0,0,1,.63.06.27.27,0,0,1,.25.18,2.83,2.83,0,0,1,.05.66v.45a4.14,4.14,0,0,1-.06.9.26.26,0,0,1-.27.21,3.76,3.76,0,0,0-2.37.72,7.23,7.23,0,0,0-1.71,2,5.59,5.59,0,0,0-.72,2.58q-.09,1.26-.09,4.44v3.45a.39.39,0,0,1,0,.2q0,.08-.33.12a6,6,0,0,1-.85,0h-.18a6.2,6.2,0,0,1-.86,0,.75.75,0,0,1-.36-.11.25.25,0,0,1-.07-.21V462c0-.78,0-1.75,0-2.92s0-1.83,0-2a.29.29,0,0,1,.06-.21.75.75,0,0,1,.34-.1A5.61,5.61,0,0,1,531.34,456.71Z" transform="translate(-3.18 -3.33)"/><path class="cls-2" d="M542.14,456.71h.15a3.93,3.93,0,0,1,1,.08.28.28,0,0,1,.23.28l0,1.35h0a5.54,5.54,0,0,1,2.13-1.45,7.17,7.17,0,0,1,2.76-.56,5.48,5.48,0,0,1,4.11,1.59q1.53,1.56,1.53,5.1v9.09a.39.39,0,0,1-.05.2q0,.08-.33.12a6,6,0,0,1-.85,0h-.18a6.11,6.11,0,0,1-.86,0,.75.75,0,0,1-.36-.11.25.25,0,0,1-.07-.21v-7.83a21.33,21.33,0,0,0-.15-2.89,3.2,3.2,0,0,0-.66-1.52,3.52,3.52,0,0,0-2.85-1,4.44,4.44,0,0,0-3.18,1.08,3.22,3.22,0,0,0-.81,2.13q-.09,1.26-.09,4.11v5.91a.39.39,0,0,1,0,.2q0,.08-.33.12a6.13,6.13,0,0,1-.85,0h-.18a6.2,6.2,0,0,1-.86,0,.75.75,0,0,1-.36-.11.25.25,0,0,1-.07-.21V462c0-.78,0-1.75,0-2.92s0-1.83,0-2a.29.29,0,0,1,.06-.21.75.75,0,0,1,.34-.1A5.61,5.61,0,0,1,542.14,456.71Z" transform="translate(-3.18 -3.33)"/><path class="cls-2" d="M568,459.14l-.21.3a2.76,2.76,0,0,1-.59.66.2.2,0,0,1-.31-.06,6.22,6.22,0,0,0-3.48-1.32,4.18,4.18,0,0,0-2.07.51,1.72,1.72,0,0,0-.93,1.62,1.75,1.75,0,0,0,.53,1.28,3,3,0,0,0,1.07.7c.35.12.86.26,1.51.42a19.36,19.36,0,0,1,1.87.59,8.41,8.41,0,0,1,1.55.79,3.47,3.47,0,0,1,1.24,1.34,4.19,4.19,0,0,1,.42,1.93,4.35,4.35,0,0,1-1.71,3.63,6.83,6.83,0,0,1-4.29,1.32,8.16,8.16,0,0,1-4.92-1.5c-.15-.14-.2-.26-.18-.36a4.6,4.6,0,0,1,.3-.72l.14-.33a2,2,0,0,1,.45-.72c.13-.08.28-.05.46.09a7.8,7.8,0,0,0,3.9,1.2,4.36,4.36,0,0,0,2.26-.61,2,2,0,0,0,1-1.82,1.75,1.75,0,0,0-1-1.62,9.45,9.45,0,0,0-2.49-.87,7.77,7.77,0,0,1-3.58-1.53,3.81,3.81,0,0,1-1.19-2.91,4.2,4.2,0,0,1,1.6-3.43,6,6,0,0,1,4-1.31,6.89,6.89,0,0,1,4.74,1.65C568.37,458.3,568.34,458.66,568,459.14Z" transform="translate(-3.18 -3.33)"/><g id="layer101"><path class="cls-3" d="M342,337.49c-1.06-.62-2.76-1.68-3.78-2.33a33.58,33.58,0,0,0-4.76-2.79,5.91,5.91,0,0,0-3.07-.77,7.22,7.22,0,0,1-1.75-.23c0-.08-.51-1.49-1-3.15-1.16-3.72-2.8-8.49-5.22-15.18-1-2.83-2.55-7.07-3.4-9.45s-2.13-6-2.87-8a95.78,95.78,0,0,1-2.91-9.2c-.09-.52-.81-3.33-.89-3.43s-.8-.24-1.72-.49a139.88,139.88,0,0,1-24.37-9.53q-10.65-5.48-16.55-11.34a21.32,21.32,0,0,1-5.1-7.15,24.31,24.31,0,0,1-1.33-3.54c.11,0,7.66,1.89,8.22,2.06a4.64,4.64,0,0,0,.6.16s-.6-.33-1.41-.73A38.7,38.7,0,0,1,258,242.63a32.31,32.31,0,0,1-5.05-8.94,44.6,44.6,0,0,1-2-8.16,37.14,37.14,0,0,1,.13-8.75c.34-1.69.57-2.37.73-2.37a20.73,20.73,0,0,1,2.24,1.38c2.55,1.69,6.18,3.93,11.92,7.32,2.37,1.41,6.45,3.84,9,5.4,18.91,11.42,36.23,21.74,36.28,21.63a9.49,9.49,0,0,0-.35-1.95,28.09,28.09,0,0,1-1-7.68c0-2.91.16-3.86,1-5.71a4.89,4.89,0,0,1,2.43-2.58,4.27,4.27,0,0,1,2.31-.36,9.36,9.36,0,0,1,3.19.54l1.71.52.44-.42c.74-.68,9.59-8.36,12.83-11.14,4-3.43,8.94-7.54,9-7.48s-.26,1.33-.64,2.92-1.07,4.55-1.54,6.58c-2.47,10.54-4.07,17.36-4.61,19.65-.26,1-.72,3-1,4.37-1.11,4.83-2.81,12-2.89,12.28-.21.65.26,0,1.21-1.65a25.07,25.07,0,0,1,4.29-5.88,14.31,14.31,0,0,1,4.61-3.33,9,9,0,0,1,4.86-.71,11.76,11.76,0,0,1,5.8,1.37,17.9,17.9,0,0,1,6.37,5.57,3.9,3.9,0,0,0,2.38,1.9c.32.09,1.79.3,3.26.46s4.24.5,6.15.74,7.65.9,12.75,1.48,9.77,1.13,10.38,1.23l1.11.18-2.74.11c-1.51.05-9.34.14-17.39.2l-14.65.09-.83,1.07a79.14,79.14,0,0,1-7.46,7.38c-1.26,1.1-4.3,4-6.75,6.45s-5,4.94-5.76,5.53c-2.24,1.84-2.85,2.92-6.51,11.36-2.39,5.5-2.42,5.59-2.24,6s1.32,1.2,4.14,3.15A237.23,237.23,0,0,1,355.85,319a27.91,27.91,0,0,1,3.73,4.26c0,.27-1.8.47-4.36.49l-2.79,0-1.07,2c-1.11,2.07-6,10.77-6.71,12.05a2.5,2.5,0,0,1-.57.77A12.88,12.88,0,0,1,342,337.49ZM326.32,297c-.06,0-.1,0-.1.1s0,.15.1.11A.2.2,0,0,0,326.32,297ZM313,282.82a.32.32,0,0,0-.29,0c-.11,0-.07.09.09.09S313,282.87,313,282.82Zm2.07-.15a.3.3,0,0,0-.28,0c-.12,0-.07.09.09.09S315.11,282.72,315.05,282.67Zm2.08-.16a.2.2,0,0,0-.21,0c-.05.06,0,.1.1.1S317.17,282.57,317.13,282.51Zm2.07-.15a.18.18,0,0,0-.2,0c-.05.06,0,.11.1.11S319.25,282.42,319.2,282.36Zm2.08-.13a.3.3,0,0,0-.28,0c-.12.05-.08.09.09.09S321.34,282.27,321.28,282.23Zm1.93-.16a.17.17,0,0,0-.21,0c-.05.06,0,.1.1.1S323.25,282.13,323.21,282.07Zm1.92-.15a.15.15,0,0,0-.2,0c-.05.06,0,.1.1.1S325.18,282,325.13,281.92Zm15.62-4.55c0-.05-.06-.12-.15-.17s-.15,0-.15.06a.17.17,0,0,0,.15.17C340.69,277.43,340.75,277.4,340.75,277.37ZM340.7,276c-.06-.05-.1,0-.1.1s0,.15.1.1A.15.15,0,0,0,340.7,276Zm6.94-3.31c.05-.07.06-.15,0-.15s-.12.08-.17.15-.06.15,0,.15A.25.25,0,0,0,347.64,272.68Zm1.34-1c0-.07,0-.15,0-.15s-.12.08-.16.15-.06.15,0,.15S348.93,271.73,349,271.64Zm.88-.74c.05-.07.06-.15,0-.15s-.12.08-.16.15-.06.15,0,.15S349.82,271,349.86,270.9Zm1-.89c.05-.07.06-.15,0-.15s-.12.08-.17.15-.06.15,0,.15A.25.25,0,0,0,350.9,270Zm-9.31-1c-.06,0-.1,0-.1.1s0,.15.1.11A.17.17,0,0,0,341.59,269Zm.15-1.19c-.06,0-.1,0-.1.11s0,.14.1.1A.2.2,0,0,0,341.74,267.83Zm12.22-.59c.19-.24.17-.25,0-.06a.74.74,0,0,0-.26.25C353.65,267.55,353.76,267.48,354,267.24Zm-12.07-.59c-.06,0-.11,0-.11.1s.05.15.11.1A.18.18,0,0,0,341.89,266.65Zm.15-1.19c-.06,0-.11,0-.11.1s.05.15.11.11A.2.2,0,0,0,342,265.46Zm14.29-.59c.19-.24.18-.26-.05-.06a.85.85,0,0,0-.26.25C356,265.18,356.14,265.1,356.33,264.87Zm-14.15-.6c-.05,0-.1,0-.1.11s.05.15.1.1A.17.17,0,0,0,342.18,264.27Zm15.25-.63c0-.08.06-.15,0-.15s-.12.07-.16.15-.06.14,0,.14A.24.24,0,0,0,357.43,263.64Zm-1.26-1.1c0-.05-.08-.12-.18-.18s-.12,0-.06.06S356.17,262.66,356.17,262.54Zm-13.69-.34c-.06-.05-.1,0-.1.1s0,.15.1.11A.17.17,0,0,0,342.48,262.2Zm0-.45c-.06,0-.1,0-.1.11s0,.15.1.1A.17.17,0,0,0,342.48,261.75Zm12.65-.38a1.71,1.71,0,0,0-.33-.34l-.34-.29.28.35C355,261.4,355.13,261.49,355.13,261.37Zm20.27-1.25a.2.2,0,0,0-.21,0c-.05.06,0,.11.1.11S375.44,260.18,375.4,260.12Zm-2.67-.15a.2.2,0,0,0-.21,0c0,.06,0,.11.1.11S372.77,260,372.73,260Zm-2.37-.14a.17.17,0,0,0-.21,0c0,.06,0,.1.1.1S370.4,259.89,370.36,259.83Zm-16.71-.11s-.08-.12-.18-.18-.12,0-.06.06S353.65,259.84,353.65,259.72Zm14.33,0a.15.15,0,0,0-.2,0c0,.06,0,.1.1.1S368,259.74,368,259.68Zm-2.52-.14a.3.3,0,0,0-.28,0c-.12,0-.07.09.09.09S365.52,259.59,365.46,259.54Zm-3.62-.16a1.08,1.08,0,0,0-.44,0c-.15.05-.06.08.18.08S361.93,259.43,361.84,259.38Zm-18.91-1c-.06,0-.11,0-.11.11s.05.15.11.1A.2.2,0,0,0,342.93,258.34Zm.14-1.33c-.06-.05-.1,0-.1.1s0,.15.1.11A.17.17,0,0,0,343.07,257Zm7.61-.7s-.07-.12-.18-.18-.12,0-.06.06S350.68,256.43,350.68,256.31Zm-7.46-.64c-.06,0-.1,0-.1.11s0,.15.1.1A.17.17,0,0,0,343.22,255.67Zm5.09-2s-.08-.12-.18-.17-.12-.05-.06.05S348.31,253.76,348.31,253.64Zm-1.78-1.91a4.57,4.57,0,0,0-.55-.56l-.56-.51.5.57C346.41,251.73,346.53,251.85,346.53,251.73Zm-2.71-.95c-.06,0-.11,0-.11.11s.05.14.11.1A.2.2,0,0,0,343.82,250.78Zm.93-.84a1,1,0,0,0-.25-.26c-.24-.19-.25-.17-.06.06S344.75,250.05,344.75,249.94Z" transform="translate(-3.18 -3.33)"/></g><g id="layer102"><path class="cls-4" d="M342,337.49c-1.06-.62-2.76-1.68-3.78-2.33a33.58,33.58,0,0,0-4.76-2.79,5.91,5.91,0,0,0-3.07-.77,7.22,7.22,0,0,1-1.75-.23c0-.08-.51-1.49-1-3.15-1.16-3.72-2.8-8.49-5.22-15.18-1-2.83-2.55-7.07-3.4-9.45s-2.13-6-2.87-8c-1.26-3.5-2.67-7.93-2.89-9.1-.11-.49-.09-.5.13-.22a9.3,9.3,0,0,1,.7,1.18c.23.49,1.33,2.26,2.41,3.93s2.47,3.92,3.07,5c1.26,2.18,4.39,7.78,5.24,9.34.31.58.68,1.25.81,1.48s.43.74.63,1.12l3.33,6c1.63,2.94,3.16,5.71,3.38,6.15s.52,1,.67,1.19,1.7,2.65,2.51,4,2.84,4.41,3.05,4.61.38.17.47-.53c.06-.5-.11-1-1.55-3.83-.91-1.79-2.55-5-3.67-7-3.95-7.37-5.72-11.13-7.07-15.12-.92-2.76-1.15-3.77-1.15-5.1a8.73,8.73,0,0,1,2.12-5.62l1-1.31-.29-.77a71.06,71.06,0,0,1-2.8-8.79c0-.21-.15-.24-1.22-.15-.68.06-3.83.3-7,.52l-5.79.42-1.63-.43a140.53,140.53,0,0,1-24.31-9.52q-10.65-5.48-16.55-11.34a21.32,21.32,0,0,1-5.1-7.15,27.34,27.34,0,0,1-1.35-3.54s1.51.35,3.31.8c3,.75,4,1,7.46,1.92a22,22,0,0,0,4.46.89.39.39,0,0,1,.37.11c.19.14.25.14.35,0s-.32-.46-1.6-1.18l-4.1-2.38-5.27-3c-6.65-3.82-8-4.59-9.16-5.29a8.37,8.37,0,0,0-1.48-.77c-.67-.1-3.53-5.13-4.67-8.24a44.8,44.8,0,0,1-2-8.16,37.14,37.14,0,0,1,.13-8.75c.34-1.69.57-2.37.73-2.37a20.73,20.73,0,0,1,2.24,1.38c2.55,1.69,6.18,3.93,11.92,7.32,2.37,1.41,6.45,3.84,9,5.4,18.91,11.42,36.23,21.74,36.28,21.63a9.49,9.49,0,0,0-.35-1.95,28.09,28.09,0,0,1-1-7.68c0-2.91.16-3.86,1-5.71a4.89,4.89,0,0,1,2.43-2.58,4.27,4.27,0,0,1,2.31-.36,9.36,9.36,0,0,1,3.19.54l1.71.52.44-.42c.74-.68,9.59-8.36,12.83-11.14,4-3.43,8.94-7.54,9-7.48s-.26,1.33-.64,2.92-1.07,4.55-1.54,6.58c-2.47,10.54-4.07,17.36-4.61,19.65-.26,1-.72,3-1,4.37-1.11,4.83-2.81,12-2.89,12.28-.21.65.26,0,1.21-1.65a25.07,25.07,0,0,1,4.29-5.88,14.31,14.31,0,0,1,4.61-3.33,9,9,0,0,1,4.86-.71,11.76,11.76,0,0,1,5.8,1.37,17.9,17.9,0,0,1,6.37,5.57,3.9,3.9,0,0,0,2.38,1.9c.32.09,1.79.3,3.26.46s4.24.5,6.15.74,7.65.9,12.75,1.48,9.77,1.13,10.38,1.23l1.11.18-2.74.11c-1.51.05-9.34.14-17.39.2l-14.65.09-.83,1.07a79.14,79.14,0,0,1-7.46,7.38c-1.26,1.1-4.3,4-6.75,6.45s-5,4.94-5.76,5.53c-2.24,1.84-2.85,2.92-6.51,11.36-2.39,5.5-2.42,5.59-2.24,6s1.32,1.2,4.14,3.15A237.23,237.23,0,0,1,355.85,319a27.91,27.91,0,0,1,3.73,4.26c0,.27-1.8.47-4.36.49l-2.79,0-1.07,2c-1.11,2.07-6,10.77-6.71,12.05a2.5,2.5,0,0,1-.57.77A12.88,12.88,0,0,1,342,337.49Zm1.11-61.58a83.69,83.69,0,0,0,11.15-9c1.69-1.61,3.38-3.47,3-3.35-.18.08-1.44-1.27-5-5.34-5.39-6.13-7.86-8.76-8.16-8.64s-.32.85-.65,3.56c-.22,1.9-.43,3.56-.45,3.68s-.08.69-.13,1.26-.13,1.2-.16,1.4c-.06.42,0,.11-.82,6.53-.32,2.65-.62,5-.65,5.19s-.12.77-.18,1.26-.12,1-.13,1.11-.08.59-.13,1c-.14,1-.18,1.38-.32,2.21-.1.62-.09.63.24.53A18.67,18.67,0,0,0,343.12,275.91Zm32.28-15.79a.2.2,0,0,0-.21,0c-.05.06,0,.11.1.11S375.44,260.18,375.4,260.12Zm-2.67-.15a.2.2,0,0,0-.21,0c0,.06,0,.11.1.11S372.77,260,372.73,260Zm-2.37-.14a.17.17,0,0,0-.21,0c0,.06,0,.1.1.1S370.4,259.89,370.36,259.83Zm-2.38-.15a.15.15,0,0,0-.2,0c0,.06,0,.1.1.1S368,259.74,368,259.68Zm-2.52-.14a.3.3,0,0,0-.28,0c-.12,0-.07.09.09.09S365.52,259.59,365.46,259.54Zm-3.62-.16a1.08,1.08,0,0,0-.44,0c-.15.05-.06.08.18.08S361.93,259.43,361.84,259.38Z" transform="translate(-3.18 -3.33)"/><path class="cls-4" d="M401.39,283.67c-.67-.2-.74-.58-.74-4.07,0-2.32,0-3.2.16-3.12s.13,0,.07-.21,0-.39.32-.62.5-.32,3.76-.27c3,0,3.4.07,3.65.31a1.09,1.09,0,0,1,.34.52c0,.13.06,1.73.06,3.54,0,4.36.4,4-4,4A36.52,36.52,0,0,1,401.39,283.67Z" transform="translate(-3.18 -3.33)"/><path class="cls-4" d="M385.89,280.54c-.22-.24-.25-.56-.25-2.31,0-2.7-.1-2.58,2.58-2.58s2.64-.09,2.64,2.56.12,2.63-2.58,2.63C386.37,280.84,386.13,280.81,385.89,280.54Z" transform="translate(-3.18 -3.33)"/><path class="cls-4" d="M391.62,275.23a2.46,2.46,0,0,1-.82-.67c-.29-.4-.31-.65-.35-4.27s0-3.87.26-4.37c.58-.92.74-.95,5-.95,5.44,0,5.1-.34,5.11,5.19,0,4.42,0,4.46-1,5-.43.27-.77.3-4.11.3C392.58,275.5,392.06,275.47,391.62,275.23Zm3.51-.43a17.61,17.61,0,0,0-1.78,0c-.52,0-.13.05.85.05S395.59,274.83,395.13,274.8Zm2.15-9.49c-.83,0-2.24,0-3.11,0s-.2.05,1.51.05S398.11,265.33,397.28,265.31Z" transform="translate(-3.18 -3.33)"/><path class="cls-4" d="M401.73,264.81c-.27-.08-.49-.21-.49-.28s-.12-.17-.27-.21a1.83,1.83,0,0,1-.59-.67c-.33-.56-.33-.67-.33-7.23v-6.68l.34-.5a3.84,3.84,0,0,1,.83-.83l.51-.34h13.34l.63.37c1.18.68,1.18.62,1.23,7.74a67.35,67.35,0,0,1-.12,6.85c-.18.7-1.14,1.69-1.53,1.58a.61.61,0,0,0-.47.15c-.18.18-1.22.21-6.41.2C405,264.94,402,264.88,401.73,264.81Zm.84-.88c0-.07,0-.15-.06-.15s-.11.08-.16.15,0,.15.06.15A.15.15,0,0,0,402.57,263.93Zm12-.1c-.06-.05-.1,0-.1.1s0,.15.1.11A.2.2,0,0,0,414.54,263.83Z" transform="translate(-3.18 -3.33)"/></g><path class="cls-5" d="M289.2,350.29a17.85,17.85,0,0,1-.7,5,18.74,18.74,0,0,1-2,4.59,19,19,0,0,1-3.13,3.94,20.08,20.08,0,0,1-4.14,3.08,20.9,20.9,0,0,1-5,2,22.11,22.11,0,0,1-5.71.72,23.39,23.39,0,0,1-5.8-.71,21.43,21.43,0,0,1-5.12-2,20.28,20.28,0,0,1-4.28-3.06,19.63,19.63,0,0,1-3.27-3.93,18,18,0,0,1-2.08-4.59,17.77,17.77,0,0,1-.72-5,17.58,17.58,0,0,1,.72-5,18.39,18.39,0,0,1,2.06-4.56,20.22,20.22,0,0,1,7.46-7,21.94,21.94,0,0,1,5.07-2,22.46,22.46,0,0,1,5.74-.72,23.18,23.18,0,0,1,5.73.7,21.44,21.44,0,0,1,5,2,20,20,0,0,1,4.19,3,19.45,19.45,0,0,1,3.18,3.91,18.11,18.11,0,0,1,2,4.58A17.91,17.91,0,0,1,289.2,350.29Zm-7.74,0a12.62,12.62,0,0,0-1-5,13,13,0,0,0-2.77-4.11,13.21,13.21,0,0,0-9.37-3.79,12.93,12.93,0,0,0-5.25,1.06,13.63,13.63,0,0,0-4.22,2.84,13.26,13.26,0,0,0-2.82,4.12,12.11,12.11,0,0,0-1,4.88,12.79,12.79,0,0,0,3.79,9.15,13.36,13.36,0,0,0,4.27,2.8,14.1,14.1,0,0,0,5.42,1,13.86,13.86,0,0,0,5.35-1,11.86,11.86,0,0,0,6.71-6.82A13.81,13.81,0,0,0,281.46,350.34Zm7.69,28.79a5.86,5.86,0,0,1-1.23.63,12.76,12.76,0,0,1-1.64.49,18.1,18.1,0,0,1-1.91.32,18.5,18.5,0,0,1-1.95.11,14.52,14.52,0,0,1-3.08-.33c-1-.22-2-.5-3.07-.83s-2.11-.69-3.2-1.08-2.25-.75-3.46-1.08a37.37,37.37,0,0,0-3.86-.83,27.36,27.36,0,0,0-4.38-.33,4.37,4.37,0,0,1-2.58-.72,2.46,2.46,0,0,1-1-2.11,2.38,2.38,0,0,1,1.07-2,5,5,0,0,1,3-.79,26.29,26.29,0,0,1,4.24.34c1.35.22,2.64.5,3.88.83s2.43.71,3.57,1.1,2.22.76,3.25,1.09,2,.62,2.94.84a11.58,11.58,0,0,0,2.66.33,17.47,17.47,0,0,0,2.81-.21,12.8,12.8,0,0,0,2.35-.6Z" transform="translate(-3.18 -3.33)"/><path class="cls-6" d="M302.63,334.71a3.19,3.19,0,0,1-.33,1.43,4,4,0,0,1-.88,1.17,4.27,4.27,0,0,1-1.28.8,4.33,4.33,0,0,1-4.47-.8,3.87,3.87,0,0,1-.89-1.17,3.26,3.26,0,0,1,0-2.86,3.56,3.56,0,0,1,.89-1.15,4.35,4.35,0,0,1,4.47-.79,4.06,4.06,0,0,1,1.28.79,3.68,3.68,0,0,1,.88,1.15A3.19,3.19,0,0,1,302.63,334.71Zm-7.77,34.23v-26.6h7.44v26.6Z" transform="translate(-3.18 -3.33)"/><path class="cls-6" d="M328.41,368.94V356.39a27.54,27.54,0,0,0-.19-3.61,8.93,8.93,0,0,0-.66-2.44,4.11,4.11,0,0,0-1.95-2,6.81,6.81,0,0,0-3.13-.69,6.55,6.55,0,0,0-4.54,1.55,6.41,6.41,0,0,0-1.05,1.19,4.93,4.93,0,0,0-.67,1.52,11.12,11.12,0,0,0-.36,2.1c-.07.81-.11,1.79-.11,2.92v12h-7.44v-26.6h2.25l4.13,4.23a12.77,12.77,0,0,1,1.44-1.87,9.2,9.2,0,0,1,1.89-1.55,9.5,9.5,0,0,1,2.46-1,12.24,12.24,0,0,1,3.17-.38,20.68,20.68,0,0,1,3.11.25,12.23,12.23,0,0,1,3,.87,10.1,10.1,0,0,1,2.7,1.71,9,9,0,0,1,2.07,2.76,9.88,9.88,0,0,1,.63,1.53,10.63,10.63,0,0,1,.4,1.68,17.29,17.29,0,0,1,.2,2.08q.06,1.15.06,2.73v13.61Z" transform="translate(-3.18 -3.33)"/><path class="cls-6" d="M353.49,369.19h-3.26l-13-26.85h8.28l6.35,15.55,6.2-15.55h8.4Z" transform="translate(-3.18 -3.33)"/><path class="cls-6" d="M377.52,334.71a3.19,3.19,0,0,1-.33,1.43,4.15,4.15,0,0,1-.87,1.17,4.45,4.45,0,0,1-1.29.8,4.48,4.48,0,0,1-3.17,0,4.64,4.64,0,0,1-1.3-.8,4,4,0,0,1-.89-1.17,3.36,3.36,0,0,1,0-2.86,3.71,3.71,0,0,1,.89-1.15,4.4,4.4,0,0,1,1.3-.79,4.34,4.34,0,0,1,3.17,0,4.22,4.22,0,0,1,1.29.79,3.8,3.8,0,0,1,.87,1.15A3.19,3.19,0,0,1,377.52,334.71Zm-7.76,34.23v-26.6h7.43v26.6Z" transform="translate(-3.18 -3.33)"/><path class="cls-6" d="M407.38,368.94a28.46,28.46,0,0,1,.45-3.41c.21-1.06.45-2,.73-3h-.44a13.73,13.73,0,0,1-1.51,2.8,10,10,0,0,1-2.13,2.23,9.43,9.43,0,0,1-2.83,1.49,11.05,11.05,0,0,1-3.57.55,19.22,19.22,0,0,1-4.48-.52,17.89,17.89,0,0,1-3.94-1.45,16,16,0,0,1-3.25-2.23,13.93,13.93,0,0,1-2.46-2.83,12.85,12.85,0,0,1-1.56-3.26,11.48,11.48,0,0,1-.55-3.54,13.06,13.06,0,0,1,1.16-5.44,13.25,13.25,0,0,1,3.34-4.48,16,16,0,0,1,5.28-3,20.61,20.61,0,0,1,7-1.11c1.41,0,2.66,0,3.75.14s2.1.22,3,.39a25.48,25.48,0,0,1,2.64.64c.84.26,1.69.56,2.57.9a5.69,5.69,0,0,1,2.75,1.92,4.86,4.86,0,0,1,.78,2.78v20.45Zm-.55-18.23a1.77,1.77,0,0,0-.69-1.43,5.56,5.56,0,0,0-1.71-.91c-.53-.17-1-.3-1.42-.4a13,13,0,0,0-1.32-.22c-.45-.05-1-.08-1.53-.1l-2.08,0a9.71,9.71,0,0,0-3.69.66,8.3,8.3,0,0,0-2.73,1.79,7.5,7.5,0,0,0-1.71,2.59,8.39,8.39,0,0,0-.59,3.11,7.48,7.48,0,0,0,.63,3,7.65,7.65,0,0,0,1.8,2.54,9.15,9.15,0,0,0,2.82,1.75,9.94,9.94,0,0,0,3.66.65,9.69,9.69,0,0,0,3.41-.58,7,7,0,0,0,2.72-1.8,8.35,8.35,0,0,0,1.79-3.11,14.1,14.1,0,0,0,.64-4.53Z" transform="translate(-3.18 -3.33)"/></svg>